<svg width="200" height="200" viewBox="0 0 200 200" xmlns="http://www.w3.org/2000/svg">
  <rect x="10" y="10" width="180" height="180" rx="10" ry="10" fill="#F5F5F5" stroke="#F0B778" stroke-width="2" />
  <g transform="translate(100 100)">
    <path d="M0 -50 L43.3 -25 L86.6 0 L43.3 25 L0 50 L-43.3 25 L-86.6 0 L-43.3 -25 Z" fill="#8AC942" stroke="#8AC942" stroke-width="2" />
    <path d="M0 -50 L43.3 -25 L86.6 0 L43.3 25 L0 50 L-43.3 25 L-86.6 0 L-43.3 -25 Z" fill="#609E38" stroke="#609E38" stroke-width="2" />
    <path d="M0 -50 L43.3 -25 L86.6 0 L43.3 25 L0 50 L-43.3 25 L-86.6 0 L-43.3 -25 Z" fill="#8AC942" stroke="#8AC942" stroke-width="2" />
  </g>
  <text x="50" y="170" font-size="16" font-family="Arial" fill="#F0B778" text-anchor="start">¡Nuestra asamblea ecológica!</text>
</svg>
